<mxfile host="app.diagrams.net" agent="Mozilla/5.0 (Macintosh; Intel Mac OS X 10_15_7) AppleWebKit/537.36 (KHTML, like Gecko) Chrome/130.0.0.0 Safari/537.36" version="24.8.3">
  <diagram name="Page-1" id="Ms5kI3NSoIyT3R3LVxVK">
    <mxGraphModel dx="1122" dy="760" grid="1" gridSize="10" guides="1" tooltips="1" connect="1" arrows="1" fold="1" page="1" pageScale="1" pageWidth="827" pageHeight="1169" math="0" shadow="0">
      <root>
        <mxCell id="0" />
        <mxCell id="1" parent="0" />
        <mxCell id="Isb0i1pc4W2Po-RFTcZl-2" style="edgeStyle=orthogonalEdgeStyle;rounded=0;orthogonalLoop=1;jettySize=auto;html=1;" edge="1" parent="1" source="Isb0i1pc4W2Po-RFTcZl-1">
          <mxGeometry relative="1" as="geometry">
            <mxPoint x="390" y="160" as="targetPoint" />
          </mxGeometry>
        </mxCell>
        <mxCell id="Isb0i1pc4W2Po-RFTcZl-1" value="start" style="ellipse;whiteSpace=wrap;html=1;" vertex="1" parent="1">
          <mxGeometry x="330" width="120" height="80" as="geometry" />
        </mxCell>
        <mxCell id="Isb0i1pc4W2Po-RFTcZl-3" value="input(Enter units consumed)" style="shape=parallelogram;perimeter=parallelogramPerimeter;whiteSpace=wrap;html=1;fixedSize=1;" vertex="1" parent="1">
          <mxGeometry x="300" y="160" width="180" height="60" as="geometry" />
        </mxCell>
        <mxCell id="Isb0i1pc4W2Po-RFTcZl-4" value="" style="endArrow=none;html=1;rounded=0;" edge="1" parent="1">
          <mxGeometry width="50" height="50" relative="1" as="geometry">
            <mxPoint x="390" y="300" as="sourcePoint" />
            <mxPoint x="390" y="220" as="targetPoint" />
          </mxGeometry>
        </mxCell>
        <mxCell id="Isb0i1pc4W2Po-RFTcZl-6" style="edgeStyle=orthogonalEdgeStyle;rounded=0;orthogonalLoop=1;jettySize=auto;html=1;" edge="1" parent="1" source="Isb0i1pc4W2Po-RFTcZl-5">
          <mxGeometry relative="1" as="geometry">
            <mxPoint x="160" y="520" as="targetPoint" />
          </mxGeometry>
        </mxCell>
        <mxCell id="Isb0i1pc4W2Po-RFTcZl-9" style="edgeStyle=orthogonalEdgeStyle;rounded=0;orthogonalLoop=1;jettySize=auto;html=1;" edge="1" parent="1" source="Isb0i1pc4W2Po-RFTcZl-5">
          <mxGeometry relative="1" as="geometry">
            <mxPoint x="640" y="520" as="targetPoint" />
          </mxGeometry>
        </mxCell>
        <mxCell id="Isb0i1pc4W2Po-RFTcZl-5" value="if units &amp;lt;= 50" style="rhombus;whiteSpace=wrap;html=1;" vertex="1" parent="1">
          <mxGeometry x="325" y="300" width="125" height="110" as="geometry" />
        </mxCell>
        <mxCell id="Isb0i1pc4W2Po-RFTcZl-7" value="print( units * 0.50 )" style="shape=parallelogram;perimeter=parallelogramPerimeter;whiteSpace=wrap;html=1;fixedSize=1;" vertex="1" parent="1">
          <mxGeometry x="80" y="520" width="160" height="65" as="geometry" />
        </mxCell>
        <mxCell id="Isb0i1pc4W2Po-RFTcZl-8" value="YES" style="text;html=1;align=center;verticalAlign=middle;resizable=0;points=[];autosize=1;strokeColor=none;fillColor=none;" vertex="1" parent="1">
          <mxGeometry x="165" y="318" width="50" height="30" as="geometry" />
        </mxCell>
        <mxCell id="Isb0i1pc4W2Po-RFTcZl-10" value="No" style="text;html=1;align=center;verticalAlign=middle;resizable=0;points=[];autosize=1;strokeColor=none;fillColor=none;" vertex="1" parent="1">
          <mxGeometry x="580" y="328" width="40" height="30" as="geometry" />
        </mxCell>
        <mxCell id="Isb0i1pc4W2Po-RFTcZl-15" style="edgeStyle=orthogonalEdgeStyle;rounded=0;orthogonalLoop=1;jettySize=auto;html=1;" edge="1" parent="1" source="Isb0i1pc4W2Po-RFTcZl-11">
          <mxGeometry relative="1" as="geometry">
            <mxPoint x="410" y="800" as="targetPoint" />
          </mxGeometry>
        </mxCell>
        <mxCell id="Isb0i1pc4W2Po-RFTcZl-18" style="edgeStyle=orthogonalEdgeStyle;rounded=0;orthogonalLoop=1;jettySize=auto;html=1;" edge="1" parent="1" source="Isb0i1pc4W2Po-RFTcZl-11">
          <mxGeometry relative="1" as="geometry">
            <mxPoint x="780" y="900" as="targetPoint" />
          </mxGeometry>
        </mxCell>
        <mxCell id="Isb0i1pc4W2Po-RFTcZl-11" value="elif units &amp;lt;= 150" style="rhombus;whiteSpace=wrap;html=1;" vertex="1" parent="1">
          <mxGeometry x="570" y="510" width="140" height="137" as="geometry" />
        </mxCell>
        <mxCell id="Isb0i1pc4W2Po-RFTcZl-16" value="Yes" style="text;html=1;align=center;verticalAlign=middle;resizable=0;points=[];autosize=1;strokeColor=none;fillColor=none;" vertex="1" parent="1">
          <mxGeometry x="430" y="548" width="40" height="30" as="geometry" />
        </mxCell>
        <mxCell id="Isb0i1pc4W2Po-RFTcZl-17" value="print(50*0.50) + ((units - 50) * 0.75))" style="shape=parallelogram;perimeter=parallelogramPerimeter;whiteSpace=wrap;html=1;fixedSize=1;" vertex="1" parent="1">
          <mxGeometry x="300" y="800" width="220" height="60" as="geometry" />
        </mxCell>
        <mxCell id="Isb0i1pc4W2Po-RFTcZl-20" value="No" style="text;html=1;align=center;verticalAlign=middle;resizable=0;points=[];autosize=1;strokeColor=none;fillColor=none;" vertex="1" parent="1">
          <mxGeometry x="750" y="548" width="40" height="30" as="geometry" />
        </mxCell>
        <mxCell id="Isb0i1pc4W2Po-RFTcZl-22" style="edgeStyle=orthogonalEdgeStyle;rounded=0;orthogonalLoop=1;jettySize=auto;html=1;" edge="1" parent="1" source="Isb0i1pc4W2Po-RFTcZl-21">
          <mxGeometry relative="1" as="geometry">
            <mxPoint x="600" y="1120" as="targetPoint" />
          </mxGeometry>
        </mxCell>
        <mxCell id="Isb0i1pc4W2Po-RFTcZl-26" style="edgeStyle=orthogonalEdgeStyle;rounded=0;orthogonalLoop=1;jettySize=auto;html=1;" edge="1" parent="1" source="Isb0i1pc4W2Po-RFTcZl-21">
          <mxGeometry relative="1" as="geometry">
            <mxPoint x="1000" y="1110" as="targetPoint" />
          </mxGeometry>
        </mxCell>
        <mxCell id="Isb0i1pc4W2Po-RFTcZl-21" value="elif units &amp;lt;= 250" style="rhombus;whiteSpace=wrap;html=1;" vertex="1" parent="1">
          <mxGeometry x="720" y="890" width="120" height="130" as="geometry" />
        </mxCell>
        <mxCell id="Isb0i1pc4W2Po-RFTcZl-23" value="Yes" style="text;html=1;align=center;verticalAlign=middle;resizable=0;points=[];autosize=1;strokeColor=none;fillColor=none;" vertex="1" parent="1">
          <mxGeometry x="600" y="930" width="40" height="30" as="geometry" />
        </mxCell>
        <mxCell id="Isb0i1pc4W2Po-RFTcZl-25" value="print((50*0.50) + (100*0.75) + (100*1.20) +&amp;nbsp;&lt;div&gt;((units - 200)* 1.50))&lt;/div&gt;" style="shape=parallelogram;perimeter=parallelogramPerimeter;whiteSpace=wrap;html=1;fixedSize=1;" vertex="1" parent="1">
          <mxGeometry x="460" y="1120" width="265" height="60" as="geometry" />
        </mxCell>
        <mxCell id="Isb0i1pc4W2Po-RFTcZl-27" value="No" style="text;html=1;align=center;verticalAlign=middle;resizable=0;points=[];autosize=1;strokeColor=none;fillColor=none;" vertex="1" parent="1">
          <mxGeometry x="960" y="928" width="40" height="30" as="geometry" />
        </mxCell>
        <mxCell id="Isb0i1pc4W2Po-RFTcZl-28" value="else&amp;nbsp;&lt;div&gt;print((50*0.50) + (100 * 0.75) + (100 * 1.20) + ((units - 250) * 1.50))&lt;/div&gt;" style="shape=parallelogram;perimeter=parallelogramPerimeter;whiteSpace=wrap;html=1;fixedSize=1;" vertex="1" parent="1">
          <mxGeometry x="820" y="1109" width="350" height="71" as="geometry" />
        </mxCell>
        <mxCell id="Isb0i1pc4W2Po-RFTcZl-29" value="" style="endArrow=none;html=1;rounded=0;entryX=0.5;entryY=1;entryDx=0;entryDy=0;" edge="1" parent="1" target="Isb0i1pc4W2Po-RFTcZl-7">
          <mxGeometry width="50" height="50" relative="1" as="geometry">
            <mxPoint x="160" y="1370" as="sourcePoint" />
            <mxPoint x="160" y="590" as="targetPoint" />
          </mxGeometry>
        </mxCell>
        <mxCell id="Isb0i1pc4W2Po-RFTcZl-30" value="" style="endArrow=none;html=1;rounded=0;entryX=0.042;entryY=0.691;entryDx=0;entryDy=0;entryPerimeter=0;" edge="1" parent="1" target="Isb0i1pc4W2Po-RFTcZl-35">
          <mxGeometry width="50" height="50" relative="1" as="geometry">
            <mxPoint x="160" y="1370" as="sourcePoint" />
            <mxPoint x="710" y="1580" as="targetPoint" />
          </mxGeometry>
        </mxCell>
        <mxCell id="Isb0i1pc4W2Po-RFTcZl-31" value="" style="endArrow=none;html=1;rounded=0;" edge="1" parent="1">
          <mxGeometry width="50" height="50" relative="1" as="geometry">
            <mxPoint x="410" y="1320" as="sourcePoint" />
            <mxPoint x="410" y="860" as="targetPoint" />
          </mxGeometry>
        </mxCell>
        <mxCell id="Isb0i1pc4W2Po-RFTcZl-32" value="" style="endArrow=none;html=1;rounded=0;entryX=0.021;entryY=0.383;entryDx=0;entryDy=0;entryPerimeter=0;" edge="1" parent="1" target="Isb0i1pc4W2Po-RFTcZl-35">
          <mxGeometry width="50" height="50" relative="1" as="geometry">
            <mxPoint x="410" y="1320" as="sourcePoint" />
            <mxPoint x="730" y="1530" as="targetPoint" />
          </mxGeometry>
        </mxCell>
        <mxCell id="Isb0i1pc4W2Po-RFTcZl-33" value="" style="endArrow=none;html=1;rounded=0;" edge="1" parent="1">
          <mxGeometry width="50" height="50" relative="1" as="geometry">
            <mxPoint x="600" y="1350" as="sourcePoint" />
            <mxPoint x="600" y="1180" as="targetPoint" />
          </mxGeometry>
        </mxCell>
        <mxCell id="Isb0i1pc4W2Po-RFTcZl-34" value="" style="endArrow=none;html=1;rounded=0;entryX=0;entryY=0;entryDx=0;entryDy=0;" edge="1" parent="1" target="Isb0i1pc4W2Po-RFTcZl-35">
          <mxGeometry width="50" height="50" relative="1" as="geometry">
            <mxPoint x="600" y="1350" as="sourcePoint" />
            <mxPoint x="740" y="1470" as="targetPoint" />
          </mxGeometry>
        </mxCell>
        <mxCell id="Isb0i1pc4W2Po-RFTcZl-35" value="connector" style="ellipse;whiteSpace=wrap;html=1;" vertex="1" parent="1">
          <mxGeometry x="740" y="1470" width="210" height="130" as="geometry" />
        </mxCell>
        <mxCell id="Isb0i1pc4W2Po-RFTcZl-36" value="" style="endArrow=none;html=1;rounded=0;exitX=1;exitY=0;exitDx=0;exitDy=0;" edge="1" parent="1" source="Isb0i1pc4W2Po-RFTcZl-35">
          <mxGeometry width="50" height="50" relative="1" as="geometry">
            <mxPoint x="950" y="1230" as="sourcePoint" />
            <mxPoint x="1000" y="1180" as="targetPoint" />
          </mxGeometry>
        </mxCell>
        <mxCell id="Isb0i1pc4W2Po-RFTcZl-37" value="" style="endArrow=none;html=1;rounded=0;" edge="1" parent="1">
          <mxGeometry width="50" height="50" relative="1" as="geometry">
            <mxPoint x="850" y="1780" as="sourcePoint" />
            <mxPoint x="850" y="1600" as="targetPoint" />
          </mxGeometry>
        </mxCell>
        <mxCell id="Isb0i1pc4W2Po-RFTcZl-38" value="stop" style="ellipse;whiteSpace=wrap;html=1;" vertex="1" parent="1">
          <mxGeometry x="790" y="1780" width="120" height="80" as="geometry" />
        </mxCell>
      </root>
    </mxGraphModel>
  </diagram>
</mxfile>
